# xmcd CD database file
#
# Track frame offsets:
#	150
#	19182
#	34618
#	48560
#	64532
#	82131
#	104729
#	121419
#	140889
#	157625
#	177634
#	197794
#	215156
#	231062
#	244726
#	259111
#	276666
#	288941
#	304719
#	319127
#	332522
#
# Disc length: 4627 seconds
#
# Revision: 6
# Processed by: cddbd v1.5.2PL0 Copyright (c) Steve Scherf et al.
# Submitted via: CDex 1.40Beta9
#
DISCID=42121115
DTITLE=The Dome - Vol. 50 Cd 1
DYEAR=2009
DGENRE=Other
TTITLE0=Black Eyed Peas - Boom Boom Wow (DJ Will.I.Am)
TTITLE1=Flo Rida feat. Kesha - Right Round
TTITLE2=Cassandra Sten feat. Adel Tawil - Stadt
TTITLE3=Milow - Ayo Technology
TTITLE4=Taylor Swift - Love Story
TTITLE5=T.I. feat. Justin Timberlake - Dead And Gone
TTITLE6=Flipsyde - When It Was Good
TTITLE7=Jeanette - Material Boy (Don't Look Back)
TTITLE8=Queensberry - Too Young
TTITLE9=Kerli - Walking On Air
TTITLE10=Empire of the sun - We Are The People
TTITLE11=Enrique Iglesias feat. Sarah Connor - Takin' Back My Love
TTITLE12=Alesha Dixon - The Boy Does Nothing
TTITLE13=Alex Swings oscar sings! - Miss Kiss Kiss Bang
TTITLE14=Big Ali feat. Dollar Man - Hit the floor power
TTITLE15=Timati feat. Snoop Dogg - Get Your Groove On
TTITLE16=Kid Cudi vs. Crookers - Day 'N' Nite
TTITLE17=Atzen Musik - Das Geht Ab
TTITLE18=Global Deejays feat. Rozalla - Everybody's Free 2009
TTITLE19=Chicane vs. Natasha Bedingfield - Bruised Water
TTITLE20=Scooter - Medley
EXTD=YEAR: 2009 ID3G: 12
EXTT0=
EXTT1=
EXTT2=
EXTT3=
EXTT4=
EXTT5=
EXTT6=
EXTT7=
EXTT8=
EXTT9=
EXTT10=
EXTT11=
EXTT12=
EXTT13=
EXTT14=
EXTT15=
EXTT16=
EXTT17=
EXTT18=
EXTT19=
EXTT20=
PLAYORDER=
